<svg width="642" height="800" xmlns="http://www.w3.org/2000/svg" clip-rule="evenodd" version="1.1">
 <style>
  @font-face {
   font-family: 'Logo';
   src: url('../font/Jalnan.ttf');
  }
  text.txt {
   font-family: 'Logo';
  }
 </style>
 <g>
  <title>Layer 1</title>
  <g stroke="null" id="svg_1">
   <path stroke="#0C372C" id="svg_2" d="m-17.49999,-41.5c222.33333,0 444.66666,0 666.99999,0c0,297.66622 0,595.33378 0,892.99999c-222.33333,0 -444.66666,0 -666.99999,0c0,-297.66622 0,-595.33378 0,-892.99999z" fill="#fffcf5"/>
  </g>
  <g id="svg_3">
   <path id="svg_4" d="m464.5,210.5c5.091,4.754 9.424,10.087 13,16c0.58,2.249 1.913,3.915 4,5c9.619,12.254 17.953,25.254 25,39c0.832,3.809 2.499,7.143 5,10c1.525,4.471 3.191,8.804 5,13c0.557,4.665 1.89,8.998 4,13c1.268,2.405 1.935,5.072 2,8c-0.09,2.652 0.576,4.985 2,7c0.333,2 0.667,4 1,6c0.407,11.331 0.741,22.664 1,34c-0.85,11.472 -2.517,22.805 -5,34c-1.272,3.91 -2.605,7.91 -4,12c0.157,1.373 -0.01,2.707 -0.5,4c-3.212,4.692 -5.712,9.692 -7.5,15c-5.488,9.837 -11.821,19.17 -19,28c-13.946,14.624 -29.946,26.291 -48,35c-30.408,12.456 -62.075,17.456 -95,15c-11.011,-1.461 -22.011,-3.627 -33,-6.5c-3.879,-3.053 -7.879,-5.886 -12,-8.5c-3.477,-3.567 -7.144,-6.9 -11,-10c-1.257,-2.927 -3.257,-5.261 -6,-7c-8.421,-11.838 -16.088,-24.171 -23,-37c-1.226,-6.015 -3.226,-11.682 -6,-17c-1.008,-4.096 -2.008,-8.096 -3,-12c-1.292,-5.911 -2.125,-11.911 -2.5,-18c-2.118,4.12 -3.785,8.453 -5,13c-0.821,6.846 -0.654,13.513 0.5,20c-0.164,2.687 0.003,5.354 0.5,8c2.594,7.505 5.427,14.839 8.5,22c0.225,3.046 1.558,5.379 4,7c8.896,13.23 19.229,25.23 31,36c1.3,1.101 1.8,2.434 1.5,4c-2.007,1.169 -4.173,1.835 -6.5,2c-3.227,0.176 -6.227,0.843 -9,2c-13.982,0.843 -27.982,1.176 -42,1c-1.765,-0.961 -3.765,-1.295 -6,-1c-3.409,-1.403 -7.075,-2.07 -11,-2c-2,-0.333 -4,-0.667 -6,-1c-2.405,-1.268 -5.072,-1.935 -8,-2c-7.434,-1.691 -14.767,-3.691 -22,-6c-39.082,-14.417 -66.749,-40.75 -83,-79c-3.3174,-9.269 -5.9841,-18.603 -8,-28c-0.4629,-2.982 -0.7962,-5.982 -1,-9c0.2709,-4.934 -0.3958,-9.6 -2,-14c-0.3052,-13.407 0.3615,-26.74 2,-40c0.37,-3.733 1.0367,-7.399 2,-11c1.9725,-2.584 2.9725,-5.584 3,-9c1.5739,-1.602 2.2406,-3.602 2,-6c0.4707,-2.079 1.1373,-4.079 2,-6c1.1467,-3.447 2.48,-6.78 4,-10c1.406,-0.473 2.073,-1.473 2,-3c1.155,-2.828 2.489,-5.495 4,-8c1.699,-2.066 3.032,-4.4 4,-7c7.731,-15.059 17.397,-28.726 29,-41c2.087,-1.085 3.42,-2.751 4,-5c21.784,-25.117 46.117,-47.451 73,-67c28.095,-20.253 57.595,-38.253 88.5,-54c59.447,29.287 111.947,67.954 157.5,116z" fill="#fefefe"/>
  </g>
  <g id="svg_5">
   <path id="svg_6" d="m464.5,210.5c2.575,1.228 4.908,2.895 7,5c0.586,-0.209 1.086,-0.543 1.5,-1c1.251,4.371 3.084,8.371 5.5,12c-0.333,0 -0.667,0 -1,0c-3.576,-5.913 -7.909,-11.246 -13,-16z" fill="#FFFCF5"/>
  </g>
  <g id="svg_7">
   <path id="svg_8" d="m145.5,215.5c-0.58,2.249 -1.913,3.915 -4,5c0.58,-2.249 1.913,-3.915 4,-5z" fill="#FFFCF5"/>
  </g>
  <g id="svg_9">
   <path id="svg_10" d="m477.5,226.5c0.333,0 0.667,0 1,0c1.425,1.422 2.425,3.089 3,5c-2.087,-1.085 -3.42,-2.751 -4,-5z" fill="#FFFCF5"/>
  </g>
  <g id="svg_11">
   <path id="svg_12" d="m112.5,261.5c-0.968,2.6 -2.301,4.934 -4,7c0.225,-3.046 1.558,-5.379 4,-7z" fill="#FFFCF5"/>
  </g>
  <g id="svg_13">
   <path id="svg_14" d="m506.5,270.5c1.332,1.632 2.665,3.299 4,5c0.952,1.545 1.285,3.212 1,5c-2.501,-2.857 -4.168,-6.191 -5,-10z" fill="#FFFCF5"/>
  </g>
  <g id="svg_15">
   <path id="svg_16" d="m104.5,276.5c0.073,1.527 -0.594,2.527 -2,3c-0.073,-1.527 0.594,-2.527 2,-3z" fill="#FFFCF5"/>
  </g>
  <g id="svg_17">
   <path id="svg_18" d="m516.5,293.5c2.11,4.002 3.443,8.335 4,13c-2.11,-4.002 -3.443,-8.335 -4,-13z" fill="#FFFCF5"/>
  </g>
  <g id="svg_19">
   <path id="svg_20" d="m98.5,289.5c-0.8627,1.921 -1.5293,3.921 -2,6c-1.5739,1.602 -2.2406,3.602 -2,6c-1,2 -2,4 -3,6c-0.1641,-2.687 0.0026,-5.354 0.5,-8c1.9078,-2.715 3.2411,-5.715 4,-9c0.6708,-0.752 1.5041,-1.086 2.5,-1z" fill="#FFFCF5"/>
  </g>
  <g id="svg_21">
   <path id="svg_22" d="m96.5,295.5c0.2406,2.398 -0.4261,4.398 -2,6c-0.2406,-2.398 0.4261,-4.398 2,-6z" fill="#FFFCF5"/>
  </g>
  <g id="svg_23">
   <path id="svg_24" d="m94.5,301.5c-0.0275,3.416 -1.0275,6.416 -3,9c0,-1 0,-2 0,-3c1,-2 2,-4 3,-6z" fill="#FFFCF5"/>
  </g>
  <g id="svg_25">
   <path id="svg_26" d="m522.5,314.5c1.663,1.938 2.329,4.272 2,7c-1.424,-2.015 -2.09,-4.348 -2,-7z" fill="#FFFCF5"/>
  </g>
  <g id="svg_27">
   <path id="svg_28" d="m89.5,321.5c-1.6385,13.26 -2.3052,26.593 -2,40c-1.1576,-9.157 -1.3243,-18.491 -0.5,-28c0.5277,-4.199 1.3611,-8.199 2.5,-12z" fill="#FFFCF5"/>
  </g>
  <g id="svg_29">
   <path id="svg_30" d="m525.5,327.5c1.384,5.444 2.05,11.111 2,17c0.322,5.858 -0.011,11.525 -1,17c-0.259,-11.336 -0.593,-22.669 -1,-34z" fill="#FFFCF5"/>
  </g>
  <g id="svg_31">
   <path id="svg_32" d="m87.5,361.5c1.6042,4.4 2.2709,9.066 2,14c-0.7679,-0.763 -1.2679,-1.763 -1.5,-3c-0.4986,-3.652 -0.6653,-7.318 -0.5,-11z" fill="#FFFCF5"/>
  </g>
  <g id="svg_33">
   <path id="svg_34" d="m527.5,344.5c1.155,6.821 1.321,13.821 0.5,21c-1.238,6.117 -2.071,12.283 -2.5,18.5c0.192,3.289 0.859,6.456 2,9.5c-0.333,0.667 -0.667,1.333 -1,2c-0.667,-1 -1.333,-2 -2,-3c-0.788,1.27 -1.788,2.27 -3,3c2.483,-11.195 4.15,-22.528 5,-34c0.989,-5.475 1.322,-11.142 1,-17z" fill="#FFFCF5"/>
  </g>
  <g id="svg_35">
   <path id="svg_36" d="m90.5,384.5c2.0159,9.397 4.6826,18.731 8,28c-2.9234,-4.946 -5.2567,-10.279 -7,-16c-0.7739,-3.965 -1.1073,-7.965 -1,-12z" fill="#FFFCF5"/>
  </g>
  <g id="svg_37">
   <path id="svg_38" d="m253.5,406.5c-0.804,-2.992 -2.304,-5.659 -4.5,-8c-1.776,7.566 -2.609,15.233 -2.5,23c-1.154,-6.487 -1.321,-13.154 -0.5,-20c1.215,-4.547 2.882,-8.88 5,-13c0.375,6.089 1.208,12.089 2.5,18z" fill="#FFFCF5"/>
  </g>
  <g id="svg_39">
   <path id="svg_40" d="m521.5,395.5c0.913,4.91 -0.421,8.91 -4,12c1.395,-4.09 2.728,-8.09 4,-12z" fill="#FFFCF5"/>
  </g>
  <g id="svg_41">
   <path id="svg_42" d="m253.5,406.5c0.992,3.904 1.992,7.904 3,12c-2.614,-3.468 -3.614,-7.468 -3,-12z" fill="#FFFCF5"/>
  </g>
  <g id="svg_43">
   <path id="svg_44" d="m256.5,418.5c2.774,5.318 4.774,10.985 6,17c-3.359,-5.056 -5.359,-10.722 -6,-17z" fill="#FFFCF5"/>
  </g>
  <g id="svg_49">
   <path id="svg_50" d="m255.5,451.5c1.699,2.066 3.032,4.4 4,7c-2.442,-1.621 -3.775,-3.954 -4,-7z" fill="#FFFCF5"/>
  </g>
  <g id="svg_51">
   <path id="svg_52" d="m285.5,472.5c2.743,1.739 4.743,4.073 6,7c-3.379,-1.081 -5.379,-3.415 -6,-7z" fill="#FFFCF5"/>
  </g>
  <g id="svg_57">
   <path id="svg_58" d="m483.5,502.5c27.223,8.196 51.056,22.196 71.5,42c4.603,5.548 8.437,11.548 11.5,18c0.962,3.895 2.296,7.561 4,11c0,2.333 0,4.667 0,7c-48.108,4.743 -95.775,2.076 -143,-8c-7.625,-2.161 -15.291,-4.494 -23,-7c-23.031,-6.177 -43.031,-17.51 -60,-34c-2.249,-4.076 -3.916,-8.41 -5,-13c15.151,1.258 30.151,1.258 45,0c7.759,0.232 15.425,-0.435 23,-2c2.928,-0.065 5.595,-0.732 8,-2c13.907,-2.69 26.574,-8.19 38,-16.5c5.03,-0.414 10.03,-0.081 15,1c4.902,1.642 9.902,2.809 15,3.5z" fill="#fefefe"/>
  </g>
  <g id="svg_59">
   <path id="svg_60" d="m203.5,497.5c2.928,0.065 5.595,0.732 8,2c-2.995,0.206 -5.662,-0.46 -8,-2z" fill="#FFFCF5"/>
  </g>
  <g id="svg_63">
   <path id="svg_64" d="m145.5,498.5c1,0 2,0 3,0c3.018,-0.165 6.018,0.002 9,0.5c19.18,10.044 39.513,16.211 61,18.5c16.657,1.216 33.324,1.216 50,0c4.914,0.138 9.581,-0.528 14,-2c5.904,-1.489 11.904,-2.489 18,-3c0.108,2.014 -0.558,3.68 -2,5c-2.685,2.69 -5.018,5.69 -7,9c-8.473,7.486 -17.473,14.153 -27,20c-7.105,2.718 -14.105,5.718 -21,9c-2.897,0.629 -5.564,1.629 -8,3c-5.329,1.665 -10.662,3.332 -16,5c-2.652,-0.09 -4.985,0.576 -7,2c-7.925,1.477 -15.591,3.477 -23,6c-1,0 -2,0 -3,0c-8.536,0.905 -16.869,2.238 -25,4c-3.36,0.116 -6.693,0.449 -10,1c-5.889,-0.05 -11.556,0.616 -17,2c-0.667,0 -1.333,0 -2,0c-18.656,1.003 -37.3229,1.17 -56,0.5c-5.5072,-0.066 -10.8405,-0.9 -16,-2.5c-1.147,-4.146 -1.3136,-8.48 -0.5,-13c2.0752,-5.065 4.2419,-10.065 6.5,-15c2.0869,-1.085 3.4202,-2.751 4,-5c2.6181,-3.791 5.4514,-7.457 8.5,-11c10.8725,-9.062 22.373,-17.062 34.5,-24c10.535,-3.709 21.202,-7.042 32,-10z" fill="#fefefe"/>
  </g>
  <g id="svg_65">
   <path id="svg_66" d="m217.5,500.5c3.925,-0.07 7.591,0.597 11,2c-3.35,0.165 -6.683,-0.002 -10,-0.5c-0.556,-0.383 -0.889,-0.883 -1,-1.5z" fill="#FFFCF5"/>
  </g>
  <g id="svg_67">
   <path id="svg_68" d="m285.5,500.5c-2.671,1.618 -5.671,2.285 -9,2c2.773,-1.157 5.773,-1.824 9,-2z" fill="#FFFCF5"/>
  </g>
  <g id="svg_71">
   <path id="svg_72" d="m298.5,517.5c1.442,-1.32 2.108,-2.986 2,-5c-6.096,0.511 -12.096,1.511 -18,3c-2.333,0 -4.667,0 -7,0c0.111,-0.617 0.444,-1.117 1,-1.5c8.337,-0.871 16.67,-1.704 25,-2.5c0.16,1.699 -0.006,3.366 -0.5,5c-0.671,0.752 -1.504,1.086 -2.5,1z" fill="#FFFCF5"/>
  </g>
  <g id="svg_73">
   <path id="svg_74" d="m410.5,514.5c1.667,0 3.333,0 5,0c-2.405,1.268 -5.072,1.935 -8,2c1,-0.667 2,-1.333 3,-2z" fill="#FFFCF5"/>
  </g>
  <g id="svg_75">
   <path id="svg_76" d="m275.5,515.5c2.333,0 4.667,0 7,0c-4.419,1.472 -9.086,2.138 -14,2c2.215,-0.768 4.548,-1.435 7,-2z" fill="#FFFCF5"/>
  </g>
  <g id="svg_77">
   <path id="svg_78" d="m291.5,526.5c-2.452,4.791 -6.119,8.124 -11,10c-0.42,4.058 -2.753,6.058 -7,6c-0.477,0.978 -1.143,1.811 -2,2.5c-2.366,0.44 -4.699,0.94 -7,1.5c9.527,-5.847 18.527,-12.514 27,-20z" fill="#FFFCF5"/>
  </g>
  <g id="svg_79">
   <path id="svg_80" d="m70.5,543.5c-0.5798,2.249 -1.9131,3.915 -4,5c0.5798,-2.249 1.9131,-3.915 4,-5z" fill="#FFFCF5"/>
  </g>
  <g id="svg_81">
   <path id="svg_82" d="m243.5,555.5c-2.117,2.155 -4.784,3.155 -8,3c2.436,-1.371 5.103,-2.371 8,-3z" fill="#FFFCF5"/>
  </g>
  <g id="svg_83">
   <path id="svg_84" d="m219.5,563.5c-2.015,1.424 -4.348,2.09 -7,2c2.015,-1.424 4.348,-2.09 7,-2z" fill="#FFFCF5"/>
  </g>
  <g id="svg_85">
   <path id="svg_86" d="m566.5,562.5c3.509,2.739 4.843,6.406 4,11c-1.704,-3.439 -3.038,-7.105 -4,-11z" fill="#FFFCF5"/>
  </g>
  <g id="svg_89">
   <path id="svg_90" d="m404.5,565.5c7.709,2.506 15.375,4.839 23,7c-4.055,0.324 -8.055,-0.009 -12,-1c-2.825,-1.849 -5.992,-3.183 -9.5,-4c-1.03,-0.336 -1.53,-1.003 -1.5,-2z" fill="#FFFCF5"/>
  </g>
  <g id="svg_93">
   <path id="svg_94" d="m151.5,576.5c-5.444,1.384 -11.111,2.05 -17,2c5.444,-1.384 11.111,-2.05 17,-2z" fill="#FFFCF5"/>
  </g>
  <g id="svg_95">
   <path id="svg_96" d="m60.5,576.5c5.1595,1.6 10.4928,2.434 16,2.5c18.6771,0.67 37.344,0.503 56,-0.5c-0.763,0.768 -1.763,1.268 -3,1.5c-20.347,0.786 -40.6807,0.62 -61,-0.5c-1.8839,0.216 -3.5506,0.883 -5,2c-0.8199,-1.819 -1.8199,-3.486 -3,-5z" fill="#FFFCF5"/>
  </g>
 </g>
</svg>